<?xml version="1.0" standalone="no"?>
<!DOCTYPE svg PUBLIC "-//W3C//DTD SVG 20010904//EN"
 "http://www.w3.org/TR/2001/REC-SVG-20010904/DTD/svg10.dtd">
<svg version="1.0" xmlns="http://www.w3.org/2000/svg"
 width="1280.000000pt" height="1280.000000pt" viewBox="0 0 1280.000000 1280.000000"
 preserveAspectRatio="xMidYMid meet">

<g transform="translate(0.000000,1280.000000) scale(0.100000,-0.100000)"
fill="#000000" stroke="none">
<path d="M0 6400 l0 -6400 6400 0 6400 0 0 6400 0 6400 -6400 0 -6400 0 0
-6400z m2796 1937 c454 -303 903 -593 1274 -822 1089 -673 1756 -1020 2190
-1139 54 -15 51 -15 -120 -12 -157 3 -187 7 -290 34 -270 72 -650 214 -1090
410 -215 95 -594 273 -604 283 -6 5 40 9 117 9 l127 0 0 35 0 35 -207 0 -208
-1 -423 213 -424 213 231 3 231 2 0 41 0 41 -299 -7 -300 -7 -263 140 c-145
76 -325 172 -400 213 l-136 74 359 3 359 2 0 40 0 40 -435 0 c-426 0 -437 0
-478 21 -63 33 -689 380 -712 396 -16 11 67 13 536 13 l556 0 409 -273z m5789
213 c703 -67 1260 -534 1401 -1175 8 -38 18 -136 21 -216 6 -157 -4 -257 -39
-394 l-21 -81 43 -94 c42 -94 140 -376 140 -405 0 -22 -106 -72 -227 -108
l-52 -16 -40 53 c-114 152 -245 278 -411 397 l-78 56 19 29 c80 117 159 323
184 477 16 101 15 117 -11 117 -27 0 -64 50 -64 87 0 38 45 93 75 93 19 0 16
37 -12 170 -47 229 -156 431 -325 606 -139 144 -303 249 -481 310 -72 24 -115
32 -89 15 11 -6 4 -26 -30 -92 -24 -46 -45 -86 -48 -89 -3 -3 -29 -52 -59
-110 -30 -58 -62 -119 -72 -137 l-18 -32 50 -16 c28 -10 48 -19 46 -21 -2 -3
-17 0 -33 6 -53 21 -253 69 -347 84 -162 27 -268 36 -417 37 l-145 0 -58 64
-57 63 92 60 c322 207 686 297 1063 262z m-50 -1924 c120 -6 172 -14 181 -27
3 -5 13 -9 23 -9 9 0 35 -9 58 -19 22 -11 46 -21 54 -23 8 -2 16 -5 19 -8 3
-3 30 -18 60 -34 49 -25 115 -73 161 -116 9 -8 25 -22 37 -30 12 -8 22 -19 22
-25 1 -5 26 -37 57 -70 32 -33 53 -54 48 -46 -5 10 -4 12 4 7 6 -4 9 -11 6
-16 -3 -4 13 -29 35 -56 21 -26 37 -51 34 -55 -2 -4 3 -15 12 -23 8 -9 13 -16
9 -16 -5 0 3 -12 33 -45 7 -8 8 -16 2 -20 -8 -5 14 -69 30 -85 3 -3 6 -11 8
-19 2 -9 -3 -11 -14 -7 -14 6 -15 4 -4 -10 8 -8 14 -28 15 -44 1 -16 7 -35 14
-43 10 -13 8 -17 -9 -22 -16 -5 -18 -10 -10 -20 8 -9 8 -14 -1 -17 -9 -3 -9
-10 1 -28 9 -18 10 -25 1 -28 -6 -2 -8 -9 -4 -15 4 -7 0 -8 -11 -4 -13 5 -17
3 -13 -7 3 -8 -1 -17 -8 -20 -8 -3 -12 -12 -9 -21 4 -8 1 -15 -6 -15 -7 0 -10
-7 -6 -16 4 -11 -1 -18 -14 -21 -22 -6 -27 -23 -7 -24 6 0 -17 -15 -53 -32
-36 -18 -65 -38 -65 -46 0 -8 -27 -24 -65 -37 -104 -38 -96 -34 -80 -44 13 -8
12 -10 0 -14 -8 -2 -24 -7 -35 -11 -46 -16 -184 -51 -252 -64 -35 -6 -91 -17
-125 -23 -89 -18 -540 -17 -638 1 -214 38 -326 67 -470 120 -42 15 -54 24 -52
38 2 14 -15 26 -69 51 -55 26 -68 36 -60 46 13 15 7 21 -52 51 -30 16 -37 24
-33 41 4 15 0 24 -10 28 -13 5 -14 9 -5 20 8 10 9 16 2 21 -6 3 -9 26 -6 52 3
40 2 43 -10 27 -12 -17 -13 -16 -10 11 1 17 7 41 13 55 17 45 24 88 13 94 -6
4 -3 15 9 29 11 12 20 27 20 32 1 6 6 16 12 22 6 7 8 19 5 27 -4 10 -1 13 9 9
8 -3 14 1 14 10 0 8 7 17 15 21 8 3 12 12 9 21 -4 9 2 23 15 34 11 10 21 23
21 28 0 5 13 20 29 33 15 14 27 30 25 35 -2 6 17 25 41 44 25 18 45 37 45 42
0 5 5 9 11 9 7 0 22 11 35 25 13 14 27 25 32 25 6 0 12 6 15 13 3 8 20 21 39
31 61 31 103 56 93 56 -10 0 12 11 85 43 19 8 50 18 67 22 18 3 35 11 38 16 4
5 15 9 25 9 10 0 20 5 22 10 2 6 37 18 78 26 41 9 77 19 80 22 3 4 19 8 35 9
17 1 68 6 115 10 47 5 90 8 95 7 6 -2 60 -5 120 -8z"/>
</g>
</svg>
